<svg width="45" height="41" viewBox="0 0 45 41" fill="none" xmlns="http://www.w3.org/2000/svg">
<rect x="0.917969" y="0.771484" width="43.9354" height="39.8164" rx="8.95183" fill="#323142"/>
<mask id="path-2-inside-1_5047_118" fill="white">
<path d="M29.8647 21.8994H23.5099V28.3437H20.9739V21.8994H14.6489V19.6021H20.9739V13.1279H23.5099V19.6021H29.8647V21.8994Z"/>
</mask>
<path d="M29.8647 21.8994H23.5099V28.3437H20.9739V21.8994H14.6489V19.6021H20.9739V13.1279H23.5099V19.6021H29.8647V21.8994Z" fill="black"/>
<path d="M29.8647 21.8994V26.0183H33.9837V21.8994H29.8647ZM23.5099 21.8994V17.7804H19.3909V21.8994H23.5099ZM23.5099 28.3437V32.4627H27.6288V28.3437H23.5099ZM20.9739 28.3437H16.855V32.4627H20.9739V28.3437ZM20.9739 21.8994H25.0929V17.7804H20.9739V21.8994ZM14.6489 21.8994H10.53V26.0183H14.6489V21.8994ZM14.6489 19.6021V15.4832H10.53V19.6021H14.6489ZM20.9739 19.6021V23.721H25.0929V19.6021H20.9739ZM20.9739 13.1279V9.00899H16.855V13.1279H20.9739ZM23.5099 13.1279H27.6288V9.00899H23.5099V13.1279ZM23.5099 19.6021H19.3909V23.721H23.5099V19.6021ZM29.8647 19.6021H33.9837V15.4832H29.8647V19.6021ZM29.8647 17.7804H23.5099V26.0183H29.8647V17.7804ZM19.3909 21.8994V28.3437H27.6288V21.8994H19.3909ZM23.5099 24.2248H20.9739V32.4627H23.5099V24.2248ZM25.0929 28.3437V21.8994H16.855V28.3437H25.0929ZM20.9739 17.7804H14.6489V26.0183H20.9739V17.7804ZM18.7679 21.8994V19.6021H10.53V21.8994H18.7679ZM14.6489 23.721H20.9739V15.4832H14.6489V23.721ZM25.0929 19.6021V13.1279H16.855V19.6021H25.0929ZM20.9739 17.2469H23.5099V9.00899H20.9739V17.2469ZM19.3909 13.1279V19.6021H27.6288V13.1279H19.3909ZM23.5099 23.721H29.8647V15.4832H23.5099V23.721ZM25.7458 19.6021V21.8994H33.9837V19.6021H25.7458Z" fill="white" mask="url(#path-2-inside-1_5047_118)"/>
</svg>
