<svg width="23" height="20" viewBox="0 0 23 20" fill="none" xmlns="http://www.w3.org/2000/svg">
<path fill-rule="evenodd" clip-rule="evenodd" d="M0.28418 6.85298C0.28418 3.45733 3.26319 0.842773 6.75989 0.842773C8.56237 0.842773 10.1484 1.68793 11.2866 2.78151C12.4248 1.68793 14.0108 0.842773 15.8133 0.842773C19.31 0.842773 22.289 3.45733 22.289 6.85298C22.289 9.17905 21.2971 11.2246 19.9228 12.9537C18.5509 14.6798 16.7563 16.1447 15.0381 17.3351C14.3818 17.7897 13.7179 18.2091 13.1102 18.5186C12.5396 18.8092 11.8836 19.0754 11.2866 19.0754C10.6897 19.0754 10.0336 18.8092 9.46301 18.5186C8.85536 18.2091 8.19142 17.7897 7.53513 17.3351C5.81689 16.1447 4.02233 14.6798 2.65042 12.9537C1.27613 11.2246 0.28418 9.17905 0.28418 6.85298ZM6.75989 2.7289C4.1454 2.7289 2.17031 4.65162 2.17031 6.85298C2.17031 8.61777 2.91947 10.2608 4.12697 11.7801C5.33685 13.3023 6.96476 14.6454 8.60924 15.7846C9.2315 16.2157 9.81761 16.5826 10.319 16.8379C10.8574 17.1121 11.1692 17.1892 11.2866 17.1892C11.404 17.1892 11.7158 17.1121 12.2543 16.8379C12.7556 16.5826 13.3417 16.2157 13.964 15.7846C15.6085 14.6454 17.2364 13.3023 18.4462 11.7801C19.6537 10.2608 20.4029 8.61777 20.4029 6.85298C20.4029 4.65162 18.4278 2.7289 15.8133 2.7289C14.3118 2.7289 12.9097 3.62598 12.0342 4.76457C11.8557 4.99674 11.5795 5.1328 11.2866 5.1328C10.9937 5.1328 10.7175 4.99674 10.539 4.76457C9.66353 3.62598 8.26144 2.7289 6.75989 2.7289Z" fill="#323142"/>
</svg>
